<?xml version="1.0" encoding="UTF-8" standalone="no"?>
<!-- Created with Inkscape (http://www.inkscape.org/) -->

<svg
   width="154.99289mm"
   height="57.372921mm"
   viewBox="0 0 154.99289 57.372921"
   version="1.1"
   id="svg1"
   xml:space="preserve"
   inkscape:version="1.4.2 (f4327f4, 2025-05-13)"
   sodipodi:docname="QuickImpactLogo_20251212_Dark.svg"
   xmlns:inkscape="http://www.inkscape.org/namespaces/inkscape"
   xmlns:sodipodi="http://sodipodi.sourceforge.net/DTD/sodipodi-0.dtd"
   xmlns:xlink="http://www.w3.org/1999/xlink"
   xmlns="http://www.w3.org/2000/svg"
   xmlns:svg="http://www.w3.org/2000/svg"><sodipodi:namedview
     id="namedview1"
     pagecolor="#ffffff"
     bordercolor="#000000"
     borderopacity="0.25"
     inkscape:showpageshadow="2"
     inkscape:pageopacity="0.0"
     inkscape:pagecheckerboard="0"
     inkscape:deskcolor="#d1d1d1"
     inkscape:document-units="mm"
     inkscape:zoom="1.4142135"
     inkscape:cx="441.94176"
     inkscape:cy="286.02471"
     inkscape:window-width="2400"
     inkscape:window-height="1261"
     inkscape:window-x="-9"
     inkscape:window-y="-9"
     inkscape:window-maximized="1"
     inkscape:current-layer="svg1"
     showguides="false"
     inkscape:lockguides="false"
     showgrid="false"><inkscape:grid
       id="grid2"
       units="mm"
       originx="-25.708138"
       originy="-29.954809"
       spacingx="0.99999998"
       spacingy="1"
       empcolor="#0099e5"
       empopacity="0.30196078"
       color="#0099e5"
       opacity="0.14901961"
       empspacing="5"
       enabled="true"
       visible="false" /><sodipodi:guide
       position="12.000681,57.37293"
       orientation="0,-1"
       id="guide5"
       inkscape:locked="false" /><sodipodi:guide
       position="18.298363,0.026160273"
       orientation="0,-1"
       id="guide6"
       inkscape:locked="false" /><sodipodi:guide
       position="0.088737211,94.736069"
       orientation="1,0"
       id="guide7"
       inkscape:locked="false" /><sodipodi:guide
       position="155.13457,78.464199"
       orientation="1,0"
       id="guide8"
       inkscape:locked="false" /><sodipodi:guide
       position="-4.5395848,25.95275"
       orientation="0,-1"
       id="guide9"
       inkscape:locked="false" /><sodipodi:guide
       position="78.008531,70.65899"
       orientation="1,0"
       id="guide10"
       inkscape:locked="false" /><inkscape:page
       x="0"
       y="0"
       width="154.99289"
       height="57.372921"
       id="page2"
       margin="0"
       bleed="0" /></sodipodi:namedview><defs
     id="defs1"><linearGradient
       id="linearGradient27"
       inkscape:collect="always"><stop
         style="stop-color:#0a7956;stop-opacity:1;"
         offset="0"
         id="stop26" /><stop
         style="stop-color:#09523b;stop-opacity:0;"
         offset="1"
         id="stop27" /></linearGradient><linearGradient
       id="linearGradient19"
       inkscape:collect="always"><stop
         style="stop-color:#03734c;stop-opacity:1;"
         offset="0"
         id="stop18" /><stop
         style="stop-color:#0e7c5b;stop-opacity:1;"
         offset="0.6439169"
         id="stop19" /></linearGradient><linearGradient
       id="linearGradient6"
       inkscape:collect="always"><stop
         style="stop-color:#03734c;stop-opacity:1;"
         offset="0"
         id="stop6" /><stop
         style="stop-color:#0e7c5b;stop-opacity:1;"
         offset="0.6439169"
         id="stop8" /></linearGradient><linearGradient
       id="linearGradient16"
       inkscape:collect="always"><stop
         style="stop-color:#2fbf8f;stop-opacity:1;"
         offset="0"
         id="stop16" /><stop
         style="stop-color:#2fbf8f;stop-opacity:0;"
         offset="1"
         id="stop17" /></linearGradient><rect
       x="1246.2758"
       y="3.1819806"
       width="150.61374"
       height="126.21856"
       id="rect29" /><linearGradient
       id="swatch32"
       inkscape:swatch="solid"><stop
         style="stop-color:#019846;stop-opacity:1;"
         offset="0"
         id="stop33" /></linearGradient><linearGradient
       id="swatch21"
       inkscape:swatch="solid"><stop
         style="stop-color:#019846;stop-opacity:1;"
         offset="0"
         id="stop22" /></linearGradient><rect
       x="1260.5"
       y="38.25"
       width="97"
       height="84"
       id="rect27-4-5" /><rect
       x="1644.0945"
       y="718.11023"
       width="188.97638"
       height="245.66928"
       id="rect63-8-0" /><rect
       x="1644.0945"
       y="718.11023"
       width="188.97638"
       height="245.66928"
       id="rect63-1-8-2" /><linearGradient
       inkscape:collect="always"
       xlink:href="#linearGradient16"
       id="linearGradient17"
       x1="25.485271"
       y1="97.203293"
       x2="88.887619"
       y2="97.203293"
       gradientUnits="userSpaceOnUse" /><linearGradient
       inkscape:collect="always"
       xlink:href="#linearGradient27"
       id="linearGradient18"
       gradientUnits="userSpaceOnUse"
       x1="61.88818"
       y1="93.011024"
       x2="61.483772"
       y2="164.16629"
       gradientTransform="translate(2.6458334)" /><linearGradient
       inkscape:collect="always"
       xlink:href="#linearGradient19"
       id="linearGradient9"
       gradientUnits="userSpaceOnUse"
       gradientTransform="matrix(-1.0385264,0,0,1.0050068,119.01561,37.764337)"
       x1="31.278156"
       y1="59.411167"
       x2="43.095589"
       y2="59.411167" /><linearGradient
       inkscape:collect="always"
       xlink:href="#linearGradient6"
       id="linearGradient22"
       gradientUnits="userSpaceOnUse"
       gradientTransform="matrix(1.0385264,0,0,1.0050068,3.0721489,37.764726)"
       x1="31.278156"
       y1="59.411167"
       x2="43.095589"
       y2="59.411167" /></defs><g
     id="g2"
     inkscape:export-filename="QuickImpactLogo_NoCLAIM_TransparentDunkel.png"
     inkscape:export-xdpi="65.551392"
     inkscape:export-ydpi="65.551392"
     transform="translate(-25.708139,-29.954808)"><g
       id="g15"
       transform="translate(-5.7593589,-0.3907581)"
       style="display:inline"
       inkscape:export-filename="QuickImpactLogo_CLAIM_TransparentDunkel.svg"
       inkscape:export-xdpi="65.551392"
       inkscape:export-ydpi="65.551392"><g
         id="g42"
         transform="matrix(0.96256547,0,0,1.057049,-1.7637082,49.701312)"
         style="display:none;fill:#a6b4b0;fill-opacity:1;stroke:#d6d9d9;stroke-opacity:1"
         inkscape:label="SUB Schirft"><text
           xml:space="preserve"
           style="font-style:normal;font-variant:normal;font-weight:600;font-stretch:normal;font-size:5.91807px;line-height:5.45209px;font-family:Montserrat;-inkscape-font-specification:'Montserrat Semi-Bold';text-align:start;letter-spacing:0.246586px;writing-mode:lr-tb;direction:ltr;text-anchor:start;display:inline;fill:#a6b4b0;fill-opacity:1;stroke:#5f6f75;stroke-width:0.148706;stroke-dasharray:none;stroke-opacity:1"
           x="97.950333"
           y="38.828194"
           id="text10"
           inkscape:label="SubText"
           transform="scale(0.98384556,1.0164197)"><tspan
             sodipodi:role="line"
             id="tspan10"
             style="font-style:normal;font-variant:normal;font-weight:normal;font-stretch:normal;font-size:5.91807px;line-height:5.45209px;font-family:Montserrat;-inkscape-font-specification:Montserrat;letter-spacing:0.246586px;fill:#a6b4b0;fill-opacity:1;stroke:#5f6f75;stroke-width:0.148706;stroke-dasharray:none;stroke-opacity:1"
             x="97.950333"
             y="38.828194">AUTOMATION. EFFICIENCY. AI.</tspan></text></g><g
         id="g40"
         transform="translate(-4.0882705,-37.733084)"
         style="display:inline;fill:url(#linearGradient17);fill-opacity:1"
         inkscape:label="Grafik Blitz"><path
           style="display:inline;fill:url(#linearGradient18);fill-opacity:1;stroke:#03c678;stroke-width:0.1;stroke-dasharray:none;stroke-opacity:1"
           d="m 65.88894,68.103299 -4.8469,24.814543 12.71483,0.09354 -19.902739,32.414028 5.933367,-25.3233 -12.14442,0.20459 z"
           id="path16-4"
           sodipodi:nodetypes="ccccccc"
           inkscape:label="Blitz1"
           inkscape:export-filename="Blitz_Hell_Transparent.svg"
           inkscape:export-xdpi="113.34"
           inkscape:export-ydpi="113.34" /><path
           d="m 43.893009,122.79935 c -2.112435,0 -4.746398,-1.28387 -4.787784,-4.60618 l -0.206084,-16.54295 c -0.0139,-1.11531 -0.581573,-2.585269 -3.317585,-2.518792 l 2.43e-4,-3.331566 c 2.630977,-0.03325 3.317342,-1.56993 3.317342,-2.519126 V 77.797193 c 0,-3.626155 1.999845,-5.649178 4.993868,-5.649178 h 3.908549 v 2.263274 h -1.92862 c -1.51111,0 -2.632403,1.179129 -2.632403,2.758032 v 14.646598 c 0,2.789827 -1.416989,4.876651 -3.830934,5.649225 2.308912,1.142628 3.830934,2.859746 3.830934,5.649576 v 14.6466 c 0,1.52815 1.311229,2.51144 2.632403,2.51144 h 1.900761 l 0.02785,2.52659 z"
           id="text82-1"
           style="font-size:55.4948px;line-height:786.538px;font-family:'MS Gothic';-inkscape-font-specification:'MS Gothic';letter-spacing:0.289035px;opacity:1;fill:url(#linearGradient22);fill-opacity:1;stroke:#129e74;stroke-width:0.0515728;stroke-dasharray:none;stroke-opacity:1"
           aria-label="{"
           sodipodi:nodetypes="sssccsssccssscsssccs" /><path
           d="m 78.19474,122.79896 c 2.112435,0 4.746398,-1.28386 4.787784,-4.60617 l 0.206084,-16.54296 c 0.0139,-1.1153 0.581573,-2.585266 3.317585,-2.518789 l -2.43e-4,-3.331566 c -2.630977,-0.03325 -3.317342,-1.56993 -3.317342,-2.519126 V 77.796806 c 0,-3.626155 -1.999845,-5.649178 -4.993868,-5.649178 h -3.908549 v 2.263274 h 1.92862 c 1.51111,0 2.632403,1.179129 2.632403,2.758032 v 14.646598 c 0,2.789827 1.416989,4.876651 3.830934,5.649225 -2.308912,1.142628 -3.830934,2.859753 -3.830934,5.649583 v 14.64659 c 0,1.52815 -1.311229,2.51144 -2.632403,2.51144 H 74.31405 l -0.02785,2.52659 z"
           id="text82-1-1"
           style="font-size:55.4948px;line-height:786.538px;font-family:'MS Gothic';-inkscape-font-specification:'MS Gothic';letter-spacing:0.289035px;opacity:1;fill:url(#linearGradient9);fill-opacity:1;stroke:#13a579;stroke-width:0.0515728;stroke-dasharray:none;stroke-opacity:1"
           aria-label="{"
           sodipodi:nodetypes="sssccsssccssscsssccs" /></g><g
         inkscape:label="QI_Schrift"
         inkscape:groupmode="layer"
         id="layer1"
         style="display:inline;fill:#ffffff;fill-opacity:1"
         transform="translate(-2.9398148,-38.052429)"><g
           id="g21"
           transform="translate(-0.1675789)"
           style="fill:#ffffff;fill-opacity:1"><path
             id="text28-2-4-5-4"
             style="font-style:normal;font-variant:normal;font-weight:bold;font-stretch:normal;font-size:80px;line-height:91.0488px;font-family:Montserrat;-inkscape-font-specification:'Montserrat Bold';text-align:start;letter-spacing:1px;writing-mode:lr-tb;direction:ltr;text-anchor:start;white-space:pre;shape-inside:url(#rect29);display:inline;fill:#ffffff;fill-opacity:1;stroke:#ffffff;stroke-width:0;stroke-dasharray:none;stroke-opacity:1"
             d="m 165.80163,98.811438 c -1.33806,-5.64e-4 -2.57834,0.238221 -3.72075,0.716032 -1.14243,0.47781 -2.13774,1.15034 -2.98663,2.01799 -0.84888,0.86767 -1.51053,1.88585 -1.98426,3.05479 -0.45741,1.16897 -0.68639,2.44472 -0.68701,3.82645 -6e-4,1.38173 0.22758,2.65709 0.68395,3.82644 0.47268,1.16935 1.1248,2.18843 1.9566,3.05677 0.84811,0.86837 1.84306,1.54171 2.9851,2.02048 1.15831,0.47878 2.4145,0.71843 3.76886,0.71902 1.33802,5.5e-4 2.57007,-0.23823 3.69618,-0.71604 1.14244,-0.47781 2.13001,-1.14173 2.96258,-1.99166 0.79301,-0.81057 1.42284,-1.75238 1.88851,-2.8259 l -3.82468,-1.17534 c -0.2414,0.52286 -0.55004,0.98846 -0.92609,1.39631 -0.48976,0.53123 -1.06112,0.93837 -1.71394,1.22153 -0.63649,0.28315 -1.33817,0.42438 -2.10508,0.42407 -0.76693,-3.4e-4 -1.47657,-0.14236 -2.12914,-0.42606 -0.65258,-0.2837 -1.22364,-0.69136 -1.71293,-1.22301 -0.47299,-0.53164 -0.84817,-1.16049 -1.12526,-1.8869 -0.26073,-0.74413 -0.39099,-1.55023 -0.3906,-2.41824 3.9e-4,-0.88571 0.13126,-1.69151 0.39266,-2.4177 0.27774,-0.72618 0.66159,-1.35517 1.15135,-1.8864 0.48975,-0.53123 1.0529,-0.93835 1.68941,-1.22152 0.65279,-0.28316 1.3627,-0.42438 2.12962,-0.42406 0.76694,3.2e-4 1.47656,0.14234 2.12915,0.42606 0.65257,0.28369 1.2154,0.69136 1.68834,1.22299 0.38582,0.41918 0.70082,0.89876 0.94456,1.43902 l 3.65005,-1.52938 v -5.2e-4 c -0.44612,-0.93311 -1.02274,-1.7613 -1.7298,-2.48524 -0.8318,-0.86836 -1.8185,-1.54219 -2.9605,-2.020977 -1.12571,-0.478767 -2.36591,-0.718437 -3.72025,-0.719008 z"
             sodipodi:nodetypes="ssscscccsccccscssccscscssccccccss"
             inkscape:label="C" /><path
             style="font-weight:600;font-size:73.2824px;line-height:43.7326px;font-family:Montserrat;-inkscape-font-specification:'Montserrat Semi-Bold';letter-spacing:-6.50864px;white-space:pre;display:inline;fill:#ffffff;fill-opacity:1;stroke-width:0.491212"
             d="M 94.393315,118.01318 V 98.963176 h 3.836456 v 19.037064 z"
             id="path40-1-5"
             sodipodi:nodetypes="ccccc"
             inkscape:label="I" /><path
             style="font-weight:bold;font-size:80px;line-height:91.0488px;font-family:Montserrat;-inkscape-font-specification:'Montserrat Bold';letter-spacing:1px;white-space:pre;fill:#ffffff;fill-opacity:1;stroke:#906540;stroke-width:0"
             d="m 180.64748,118.01318 v -15.45771 h -5.17655 v -3.592304 h 14.09686 v 3.592304 h -5.17655 v 15.45771 z"
             id="text30-6-0"
             aria-label="T"
             inkscape:label="T" /><path
             style="font-weight:bold;font-size:80px;line-height:91.0488px;font-family:Montserrat;-inkscape-font-specification:'Montserrat Bold';letter-spacing:1px;white-space:pre;display:inline;fill:#ffffff;fill-opacity:1;stroke:#906540;stroke-width:0"
             d="M 102.33658,118.01318 V 98.963176 h 4.2267 l 7.16412,13.443854 h -3.7194 l 7.04338,-13.443854 h 4.20325 l 0.0481,19.050004 h -3.65379 l -0.0241,-12.70907 h 0.27894 l -5.62493,10.69521 h -0.96575 l -5.74518,-10.69521 h 0.42242 v 12.70907 z"
             id="text32-6-1-6"
             aria-label="M"
             sodipodi:nodetypes="ccccccccccccccccc"
             inkscape:label="M" /><path
             id="path57-4-1"
             style="font-weight:600;font-size:73.2824px;line-height:43.7326px;font-family:Montserrat;-inkscape-font-specification:'Montserrat Semi-Bold';letter-spacing:-7.955px;white-space:pre;display:inline;fill:#ffffff;fill-opacity:1;stroke-width:0.49712"
             d="m 145.37736,98.963166 -7.24573,19.049514 h 3.71045 l 1.56014,-4.39321 h 7.69025 l 1.56677,4.39374 h 3.7634 l -7.29258,-19.050045 z m 1.86158,3.850624 2.79595,7.84083 h -5.57967 z"
             sodipodi:nodetypes="ccccccccccccc"
             inkscape:label="A" /><g
             id="g3-2-3"
             transform="matrix(1,0,0,1.0105694,-215.54502,21.512713)"
             style="fill:#ffffff;fill-opacity:1"
             inkscape:label="P"><path
               style="font-weight:bold;font-size:80px;line-height:91.0488px;font-family:Montserrat;-inkscape-font-specification:'Montserrat Bold';letter-spacing:1px;white-space:pre;fill:#ffffff;fill-opacity:1;stroke:#ffffff;stroke-width:0"
               d="m 354.42534,82.812939 c 0,1.934197 -0.51711,3.446491 -1.55135,4.536907 -1.03423,1.090415 -2.51082,1.635622 -4.42976,1.635622 h -7.42454 v -3.154415 h 6.199 c 1.24607,0 2.14324,-0.266105 2.69151,-0.79834 0.54827,-0.532234 0.82241,-1.278633 0.82241,-2.239245 0,-0.960613 -0.27414,-1.707011 -0.82241,-2.239247 -0.54827,-0.532234 -1.44544,-0.798282 -2.69151,-0.798291 l -6.199,-4.8e-5 V 76.64041 h 7.42454 c 1.91894,0 3.39553,0.545208 4.42976,1.635623 1.03424,1.090415 1.55135,2.602709 1.55135,4.536906 z"
               id="text27-3-3-8"
               inkscape:label="U"
               aria-label="U"
               sodipodi:nodetypes="sssccsssssccsss" /><g
               id="g59-2-9"
               transform="matrix(1.0379562,0,0,1.0562146,21.452587,14.931934)"
               style="fill:#ffffff;fill-opacity:1"><path
                 style="font-weight:600;font-size:73.2824px;line-height:43.7326px;font-family:Montserrat;-inkscape-font-specification:'Montserrat Semi-Bold';letter-spacing:-7.955px;white-space:pre;display:inline;fill:#ffffff;fill-opacity:1;stroke-width:0.470345"
                 d="m 307.66102,58.424214 v 17.847449 h 3.52647 v -1.432208 -0.06936 -16.345871 z"
                 id="path41-21-3"
                 sodipodi:nodetypes="ccccccc" /><text
                 xml:space="preserve"
                 transform="matrix(0.30692051,0,0,0.31979293,-217.90321,-82.133988)"
                 id="text63-6-4"
                 style="font-style:normal;font-variant:normal;font-weight:bold;font-stretch:normal;font-size:80px;line-height:116.224px;font-family:Montserrat;-inkscape-font-specification:'Montserrat Bold';text-align:start;letter-spacing:1px;writing-mode:lr-tb;direction:ltr;white-space:pre;shape-inside:url(#rect63-8-0);display:inline;fill:#ffffff;fill-opacity:1;stroke:none;stroke-width:8.21669;stroke-dasharray:none;stroke-opacity:1" /><text
                 xml:space="preserve"
                 transform="matrix(0.30692051,0,0,0.31979293,-205.09593,-224.90831)"
                 id="text63-7-8-4"
                 style="font-style:normal;font-variant:normal;font-weight:bold;font-stretch:normal;font-size:80px;line-height:116.224px;font-family:Montserrat;-inkscape-font-specification:'Montserrat Bold';text-align:start;letter-spacing:1px;writing-mode:lr-tb;direction:ltr;white-space:pre;shape-inside:url(#rect63-1-8-2);display:inline;fill:#ffffff;fill-opacity:1;stroke:none;stroke-width:8.21669;stroke-dasharray:none;stroke-opacity:1" /></g></g></g><g
           id="g20"
           transform="translate(0.8600951)"
           style="fill:#ffffff;fill-opacity:1"><path
             style="font-weight:600;font-size:96px;line-height:109.259px;font-family:Montserrat;-inkscape-font-specification:'Montserrat Semi-Bold';letter-spacing:1px;white-space:pre;display:inline;opacity:1;fill:#ffffff;fill-opacity:1;stroke:#d6d9d9;stroke-width:0"
             d="m 165.68211,90.048166 -0.83305,-4.21847 8.47026,-10.436498 4.75401,4e-5 -7.35436,8.875128 -1.92613,2.164003 z m -2.79725,4.519742 v -19.17467 h 3.70431 v 19.17467 z m 10.72364,0 -6.46261,-8.738173 2.92845,-2.602278 8.24362,11.340451 z"
             id="text9"
             aria-label="K"
             sodipodi:nodetypes="ccccccccccccccccc"
             inkscape:label="K" /><path
             id="rect42-7-6"
             style="display:inline;fill:#ffffff;fill-opacity:1;stroke:#ffffff;stroke-width:2.01933;stroke-opacity:1"
             inkscape:label="Q Schweif"
             d="m 105.71637,87.77899 5.71382,5.756191 -0.57854,0.506819 -5.71382,-5.756192 z"
             sodipodi:nodetypes="ccccc"
             transform="matrix(1,0,0,0.98472374,-0.86009517,1.1492164)" /><path
             id="text28-2-5-2"
             style="font-style:normal;font-variant:normal;font-weight:bold;font-stretch:normal;font-size:80px;line-height:91.0488px;font-family:Montserrat;-inkscape-font-specification:'Montserrat Bold';text-align:start;letter-spacing:1px;writing-mode:lr-tb;direction:ltr;text-anchor:start;white-space:pre;shape-inside:url(#rect29);display:inline;fill:#ffffff;fill-opacity:1;stroke:#ffffff;stroke-width:0;stroke-dasharray:none;stroke-opacity:1"
             d="m 151.66943,75.22894 c -1.34424,-5.68e-4 -2.59109,0.239471 -3.74042,0.719789 -1.14936,0.480317 -2.15157,1.15638 -3.00738,2.028587 -0.85579,0.872206 -1.52399,1.895742 -2.00394,3.070833 -0.46353,1.175101 -0.69798,2.457548 -0.70334,3.84653 -0.005,1.388983 0.2195,2.671043 0.67396,3.84653 0.47083,1.175493 1.12248,2.199912 1.95514,3.07283 0.84904,0.872926 1.84628,1.549796 2.99196,2.031082 1.162,0.481295 2.42318,0.722209 3.7838,0.722786 1.34421,5.69e-4 2.58278,-0.239468 3.71575,-0.719789 1.14935,-0.480316 2.14376,-1.147727 2.9831,-2.002132 0.79946,-0.81482 1.43545,-1.761573 1.90696,-2.840722 l -3.83831,-1.181512 c -0.24433,0.525602 -0.55598,0.993638 -0.93518,1.403638 -0.49385,0.534018 -1.06925,0.943294 -1.72606,1.227935 -0.64041,0.284649 -1.34582,0.426609 -2.11627,0.426283 -0.77047,-3.27e-4 -1.48291,-0.143083 -2.13752,-0.428279 -0.65462,-0.285197 -1.22693,-0.694999 -1.71666,-1.229435 -0.47335,-0.534423 -0.84808,-1.166581 -1.12396,-1.896808 -0.25939,-0.748023 -0.38748,-1.558343 -0.3841,-2.43091 0.003,-0.890373 0.13769,-1.700416 0.40279,-2.430411 0.28152,-0.729988 0.66931,-1.362293 1.16316,-1.896309 0.49384,-0.534015 1.06098,-0.943285 1.70142,-1.227934 0.6568,-0.284643 1.37047,-0.426609 2.14093,-0.426283 0.77049,3.25e-4 1.48291,0.143082 2.13754,0.428279 0.6546,0.285197 1.21863,0.695009 1.69193,1.229431 0.38614,0.421373 0.70098,0.903485 0.94398,1.44657 l 3.6722,-1.537417 v -5.01e-4 c -0.44497,-0.938023 -1.02142,-1.77056 -1.72927,-2.498297 -0.83265,-0.872918 -1.82162,-1.550296 -2.96723,-2.031582 -1.12927,-0.48128 -2.37439,-0.722209 -3.73498,-0.722784 z"
             sodipodi:nodetypes="ssscscccsccccscssccscscssccccccss"
             inkscape:label="C" /><path
             d="M 135.45962,94.567906 V 75.398107 l 3.86888,-0.0049 -0.008,19.174701 z"
             id="path38-1-8"
             sodipodi:nodetypes="ccccc"
             style="font-weight:600;font-size:73.2824px;line-height:0;font-family:Montserrat;-inkscape-font-specification:'Montserrat Semi-Bold';letter-spacing:-4.57px;white-space:pre;display:inline;fill:#ffffff;fill-opacity:1;stroke-width:0.493233"
             inkscape:label="I" /><text
             xml:space="preserve"
             transform="matrix(0.31951332,0,0,0.3229425,-289.05796,59.699239)"
             id="text27-5-0"
             style="font-size:80px;line-height:91.0488px;font-family:Montserrat;-inkscape-font-specification:Montserrat;text-align:start;letter-spacing:1px;writing-mode:lr-tb;direction:ltr;white-space:pre;shape-inside:url(#rect27-4-5);display:inline;fill:#ffffff;fill-opacity:1;stroke:#ffffff;stroke-width:0;stroke-dasharray:none;stroke-opacity:1"
             inkscape:label="U"><tspan
               x="1260.5"
               y="106.76082"
               id="tspan2"><tspan
                 style="font-weight:bold;-inkscape-font-specification:'Montserrat Bold'"
                 id="tspan1">U</tspan></tspan></text><g
             id="g1"
             transform="matrix(1,0,0,0.98472374,0,1.149217)"
             style="fill:#ffffff;fill-opacity:1"><path
               d="m 103.42673,94.867918 c -1.46231,0 -2.81892,-0.244131 -4.06981,-0.732393 -1.23328,-0.488264 -2.30799,-1.175447 -3.22414,-2.06155 -0.89853,-0.886106 -1.60326,-1.925923 -2.11419,-3.119452 -0.49331,-1.193529 -0.73997,-2.495561 -0.73997,-3.906096 0,-1.410535 0.24666,-2.712567 0.73997,-3.906097 0.51093,-1.193529 1.22446,-2.233345 2.14061,-3.11945 0.91615,-0.886105 1.99087,-1.573289 3.22414,-2.061549 1.23328,-0.488264 2.57227,-0.732394 4.01696,-0.732394 1.46232,0 2.80131,0.24413 4.01696,0.732394 1.23328,0.48826 2.29919,1.175444 3.19772,2.061549 0.91615,0.886105 1.62968,1.925921 2.14061,3.11945 0.51093,1.175447 0.7664,2.477479 0.7664,3.906097 0,1.410535 -0.25547,2.721608 -0.7664,3.933221 -0.51093,1.19353 -1.22446,2.233348 -2.14061,3.119452 -0.89853,0.868022 -1.96444,1.546161 -3.19772,2.034425 -1.21565,0.488262 -2.54583,0.732393 -3.99053,0.732393 z m -0.0264,-3.743342 c 0.82806,0 1.58565,-0.14467 2.27276,-0.434011 0.70473,-0.289339 1.32136,-0.705266 1.84991,-1.24778 0.52855,-0.542513 0.93377,-1.184488 1.21566,-1.925922 0.29951,-0.741435 0.44927,-1.564246 0.44927,-2.468436 0,-0.904188 -0.14976,-1.727001 -0.44927,-2.468434 -0.28189,-0.741436 -0.68711,-1.38341 -1.21566,-1.925922 -0.51093,-0.542513 -1.11875,-0.958441 -1.82348,-1.247782 -0.70473,-0.28934 -1.47113,-0.43401 -2.29919,-0.43401 -0.82805,0 -1.59445,0.14467 -2.29918,0.43401 -0.68711,0.289341 -1.29494,0.705269 -1.82349,1.247782 -0.52855,0.542512 -0.94257,1.184486 -1.24208,1.925922 -0.28189,0.741433 -0.42284,1.564246 -0.42284,2.468434 0,0.886107 0.14095,1.708917 0.42284,2.468436 0.29951,0.741434 0.70473,1.383409 1.21566,1.925922 0.52855,0.542514 1.14518,0.958441 1.84991,1.24778 0.70473,0.289341 1.47113,0.434011 2.29918,0.434011 z"
               id="text64-1-6-0"
               style="font-weight:bold;font-size:80px;line-height:116.224px;font-family:Montserrat;-inkscape-font-specification:'Montserrat Bold';letter-spacing:1px;white-space:pre;fill:#ffffff;fill-opacity:1;stroke-width:2.74993"
               aria-label="O"
               sodipodi:nodetypes="scccscssscccscccsscscsccsscscsccss"
               inkscape:label="Q" /></g></g></g></g></g></svg>
