<?xml version="1.0" encoding="UTF-8"?>
<!-- Created with Inkscape (http://www.inkscape.org/) -->
<svg width="189.98mm" height="31.371mm" version="1.1" viewBox="0 0 189.98 31.371" xml:space="preserve" xmlns="http://www.w3.org/2000/svg" xmlns:xlink="http://www.w3.org/1999/xlink"><defs><linearGradient id="linearGradient19"><stop stop-color="#03734c" offset="0"/><stop stop-color="#0e7c5b" offset=".64392"/></linearGradient><linearGradient id="linearGradient17" x1="25.485" x2="88.888" y1="97.203" y2="97.203" gradientUnits="userSpaceOnUse"><stop stop-color="#2fbf8f" offset="0"/><stop stop-color="#2fbf8f" stop-opacity="0" offset="1"/></linearGradient><linearGradient id="linearGradient18" x1="61.888" x2="61.484" y1="93.011" y2="164.17" gradientTransform="translate(2.6458)" gradientUnits="userSpaceOnUse"><stop stop-color="#0a7956" offset="0"/><stop stop-color="#09523b" stop-opacity="0" offset="1"/></linearGradient><linearGradient id="linearGradient9" x1="31.278" x2="43.096" y1="59.411" y2="59.411" gradientTransform="matrix(-1.0385 0 0 1.005 119.02 37.764)" gradientUnits="userSpaceOnUse" xlink:href="#linearGradient19"/><linearGradient id="linearGradient22" x1="31.278" x2="43.096" y1="59.411" y2="59.411" gradientTransform="matrix(1.0385 0 0 1.005 3.0721 37.765)" gradientUnits="userSpaceOnUse" xlink:href="#linearGradient19"/></defs><g transform="translate(-11.02 -68.454)"><g transform="translate(-4.1889 89.399)"><g transform="matrix(.54679 0 0 .54679 -4.2328 -58.17)"><path d="m65.889 68.103-4.8469 24.815 12.715 0.09354-19.903 32.414 5.9334-25.323-12.144 0.20459z" fill="url(#linearGradient18)" stroke="#03c678" stroke-width=".1"/><path d="m43.893 122.8c-2.1124 0-4.7464-1.2839-4.7878-4.6062l-0.20608-16.543c-0.0139-1.1153-0.58157-2.5853-3.3176-2.5188l2.43e-4 -3.3316c2.631-0.03325 3.3173-1.5699 3.3173-2.5191v-15.484c0-3.6262 1.9998-5.6492 4.9939-5.6492h3.9085v2.2633h-1.9286c-1.5111 0-2.6324 1.1791-2.6324 2.758v14.647c0 2.7898-1.417 4.8767-3.8309 5.6492 2.3089 1.1426 3.8309 2.8597 3.8309 5.6496v14.647c0 1.5282 1.3112 2.5114 2.6324 2.5114h1.9008l0.02785 2.5266z" fill="url(#linearGradient22)" stroke="#129e74" stroke-width=".051573" aria-label="{"/><path d="m78.195 122.8c2.1124 0 4.7464-1.2839 4.7878-4.6062l0.20608-16.543c0.0139-1.1153 0.58157-2.5853 3.3176-2.5188l-2.43e-4 -3.3316c-2.631-0.03325-3.3173-1.5699-3.3173-2.5191v-15.484c0-3.6262-1.9998-5.6492-4.9939-5.6492h-3.9085v2.2633h1.9286c1.5111 0 2.6324 1.1791 2.6324 2.758v14.647c0 2.7898 1.417 4.8767 3.8309 5.6492-2.3089 1.1426-3.8309 2.8598-3.8309 5.6496v14.647c0 1.5282-1.3112 2.5114-2.6324 2.5114h-1.9008l-0.02785 2.5266z" fill="url(#linearGradient9)" stroke="#13a579" stroke-width=".051573" aria-label="{"/></g><g transform="translate(-2.9398 -38.052)" fill="#fff"><g transform="matrix(.84471 0 0 .84471 48.532 -57.441)"><path d="m165.18 98.811c-1.3381-5.64e-4 -2.5783 0.23822-3.7208 0.71603-1.1424 0.47781-2.1377 1.1503-2.9866 2.018-0.84888 0.86767-1.5105 1.8858-1.9843 3.0548-0.45741 1.169-0.68639 2.4447-0.68701 3.8264-6e-4 1.3817 0.22758 2.6571 0.68395 3.8264 0.47268 1.1694 1.1248 2.1884 1.9566 3.0568 0.84811 0.86837 1.8431 1.5417 2.9851 2.0205 1.1583 0.47878 2.4145 0.71843 3.7689 0.71902 1.338 5.5e-4 2.5701-0.23823 3.6962-0.71604 1.1424-0.47781 2.13-1.1417 2.9626-1.9917 0.79301-0.81057 1.4228-1.7524 1.8885-2.8259l-3.8247-1.1753c-0.2414 0.52286-0.55004 0.98846-0.92609 1.3963-0.48976 0.53123-1.0611 0.93837-1.7139 1.2215-0.63649 0.28315-1.3382 0.42438-2.1051 0.42407-0.76693-3.4e-4 -1.4766-0.14236-2.1291-0.42606-0.65258-0.2837-1.2236-0.69136-1.7129-1.223-0.47299-0.53164-0.84817-1.1605-1.1253-1.8869-0.26073-0.74413-0.39099-1.5502-0.3906-2.4182 3.9e-4 -0.88571 0.13126-1.6915 0.39266-2.4177 0.27774-0.72618 0.66159-1.3552 1.1514-1.8864 0.48975-0.53123 1.0529-0.93835 1.6894-1.2215 0.65279-0.28316 1.3627-0.42438 2.1296-0.42406 0.76694 3.2e-4 1.4766 0.14234 2.1292 0.42606 0.65257 0.28369 1.2154 0.69136 1.6883 1.223 0.38582 0.41918 0.70082 0.89876 0.94456 1.439l3.65-1.5294v-5.2e-4c-0.44612-0.93311-1.0227-1.7613-1.7298-2.4852-0.8318-0.86836-1.8185-1.5422-2.9605-2.021-1.1257-0.47877-2.3659-0.71844-3.7202-0.71901z" stroke-width="0" style="shape-inside:url(#rect29);white-space:pre"/><path d="m94.393 118.01v-19.05h3.8365v19.037z" stroke-width=".49121" style="white-space:pre"/><path d="m180.02 118.01v-15.458h-5.1766v-3.5923h14.097v3.5923h-5.1766v15.458z" stroke-width="0" style="white-space:pre" aria-label="T"/><path d="m102.34 118.01v-19.05h4.2267l7.1641 13.444h-3.7194l7.0434-13.444h4.2032l0.0481 19.05h-3.6538l-0.0241-12.709h0.27894l-5.6249 10.695h-0.96575l-5.7452-10.695h0.42242v12.709z" stroke-width="0" style="white-space:pre" aria-label="M"/><path d="m144.75 98.963-7.2457 19.05h3.7104l1.5601-4.3932h7.6902l1.5668 4.3937h3.7634l-7.2926-19.05zm1.8616 3.8506 2.796 7.8408h-5.5797z" stroke-width=".49712" style="white-space:pre"/><g transform="matrix(1 0 0 1.0106 -216.17 21.513)"><path d="m354.43 82.813c0 1.9342-0.51711 3.4465-1.5514 4.5369-1.0342 1.0904-2.5108 1.6356-4.4298 1.6356h-7.4245v-3.1544h6.199c1.2461 0 2.1432-0.2661 2.6915-0.79834 0.54827-0.53223 0.82241-1.2786 0.82241-2.2392 0-0.96061-0.27414-1.707-0.82241-2.2392-0.54827-0.53223-1.4454-0.79828-2.6915-0.79829l-6.199-4.8e-5v-3.1155h7.4245c1.9189 0 3.3955 0.54521 4.4298 1.6356 1.0342 1.0904 1.5514 2.6027 1.5514 4.5369z" stroke-width="0" style="white-space:pre" aria-label="U"/><g transform="matrix(1.038 0 0 1.0562 21.453 14.932)"><path d="m307.66 58.424v17.847h3.5265v-17.847z" fill="#fff" stroke-width=".47034" style="white-space:pre"/><text transform="matrix(.30692 0 0 .31979 -217.9 -82.134)" fill="#ffffff" font-family="Montserrat" font-size="80px" font-weight="bold" letter-spacing="1px" style="line-height:116.224px;shape-inside:url(#rect63-8-0);white-space:pre" xml:space="preserve"/><text transform="matrix(.30692 0 0 .31979 -205.1 -224.91)" fill="#ffffff" font-family="Montserrat" font-size="80px" font-weight="bold" letter-spacing="1px" style="line-height:116.224px;shape-inside:url(#rect63-1-8-2);white-space:pre" xml:space="preserve"/></g></g></g><g transform="matrix(.84471 0 0 .84471 -28.024 -37.628)"><g fill="#fff"><path d="m165.68 90.048-0.83305-4.2185 8.4703-10.436 4.754 4e-5 -7.3544 8.8751-1.9261 2.164zm-2.7972 4.5197v-19.175h3.7043v19.175zm10.724 0-6.4626-8.7382 2.9284-2.6023 8.2436 11.34z" stroke-width="0" style="white-space:pre" aria-label="K"/><path transform="matrix(1 0 0 .98472 -.8601 1.1492)" d="m105.72 87.779 5.7138 5.7562-0.57854 0.50682-5.7138-5.7562z" stroke="#fff" stroke-width="2.0193"/><path d="m151.67 75.229c-1.3442-5.68e-4 -2.5911 0.23947-3.7404 0.71979-1.1494 0.48032-2.1516 1.1564-3.0074 2.0286-0.85579 0.87221-1.524 1.8957-2.0039 3.0708-0.46353 1.1751-0.69798 2.4575-0.70334 3.8465-5e-3 1.389 0.2195 2.671 0.67396 3.8465 0.47083 1.1755 1.1225 2.1999 1.9551 3.0728 0.84904 0.87293 1.8463 1.5498 2.992 2.0311 1.162 0.4813 2.4232 0.72221 3.7838 0.72279 1.3442 5.69e-4 2.5828-0.23947 3.7158-0.71979 1.1494-0.48032 2.1438-1.1477 2.9831-2.0021 0.79946-0.81482 1.4354-1.7616 1.907-2.8407l-3.8383-1.1815c-0.24433 0.5256-0.55598 0.99364-0.93518 1.4036-0.49385 0.53402-1.0692 0.94329-1.7261 1.2279-0.64041 0.28465-1.3458 0.42661-2.1163 0.42628-0.77047-3.27e-4 -1.4829-0.14308-2.1375-0.42828-0.65462-0.2852-1.2269-0.695-1.7167-1.2294-0.47335-0.53442-0.84808-1.1666-1.124-1.8968-0.25939-0.74802-0.38748-1.5583-0.3841-2.4309 3e-3 -0.89037 0.13769-1.7004 0.40279-2.4304 0.28152-0.72999 0.66931-1.3623 1.1632-1.8963 0.49384-0.53402 1.061-0.94328 1.7014-1.2279 0.6568-0.28464 1.3705-0.42661 2.1409-0.42628 0.77049 3.25e-4 1.4829 0.14308 2.1375 0.42828 0.6546 0.2852 1.2186 0.69501 1.6919 1.2294 0.38614 0.42137 0.70098 0.90348 0.94398 1.4466l3.6722-1.5374v-5.01e-4c-0.44497-0.93802-1.0214-1.7706-1.7293-2.4983-0.83265-0.87292-1.8216-1.5503-2.9672-2.0316-1.1293-0.48128-2.3744-0.72221-3.735-0.72278z" stroke-width="0" style="shape-inside:url(#rect29);white-space:pre"/><path d="m135.46 94.568v-19.17l3.8689-0.0049-8e-3 19.175z" stroke-width=".49323" style="white-space:pre"/></g><text transform="matrix(.31951 0 0 .32294 -289.06 59.699)" fill="#ffffff" font-family="Montserrat" font-size="80px" letter-spacing="1px" stroke="#ffffff" stroke-width="0" style="line-height:91.0488px;shape-inside:url(#rect27-4-5);white-space:pre" xml:space="preserve"><tspan x="1260.5" y="106.76082"><tspan font-weight="bold">U</tspan></tspan></text><g transform="matrix(1 0 0 .98472 0 1.1492)" fill="#fff"><path d="m103.43 94.868c-1.4623 0-2.8189-0.24413-4.0698-0.73239-1.2333-0.48826-2.308-1.1754-3.2241-2.0616-0.89853-0.88611-1.6033-1.9259-2.1142-3.1195-0.49331-1.1935-0.73997-2.4956-0.73997-3.9061s0.24666-2.7126 0.73997-3.9061c0.51093-1.1935 1.2245-2.2333 2.1406-3.1194s1.9909-1.5733 3.2241-2.0615c1.2333-0.48826 2.5723-0.73239 4.017-0.73239 1.4623 0 2.8013 0.24413 4.017 0.73239 1.2333 0.48826 2.2992 1.1754 3.1977 2.0615 0.91615 0.8861 1.6297 1.9259 2.1406 3.1194 0.51093 1.1754 0.7664 2.4775 0.7664 3.9061 0 1.4105-0.25547 2.7216-0.7664 3.9332-0.51093 1.1935-1.2245 2.2333-2.1406 3.1195-0.89853 0.86802-1.9644 1.5462-3.1977 2.0344-1.2156 0.48826-2.5458 0.73239-3.9905 0.73239zm-0.0264-3.7433c0.82806 0 1.5856-0.14467 2.2728-0.43401 0.70473-0.28934 1.3214-0.70527 1.8499-1.2478 0.52855-0.54251 0.93377-1.1845 1.2157-1.9259 0.29951-0.74144 0.44927-1.5642 0.44927-2.4684 0-0.90419-0.14976-1.727-0.44927-2.4684-0.28189-0.74144-0.68711-1.3834-1.2157-1.9259-0.51093-0.54251-1.1188-0.95844-1.8235-1.2478-0.70473-0.28934-1.4711-0.43401-2.2992-0.43401-0.82805 0-1.5944 0.14467-2.2992 0.43401-0.68711 0.28934-1.2949 0.70527-1.8235 1.2478-0.52855 0.54251-0.94257 1.1845-1.2421 1.9259-0.28189 0.74143-0.42284 1.5642-0.42284 2.4684 0 0.88611 0.14095 1.7089 0.42284 2.4684 0.29951 0.74143 0.70473 1.3834 1.2157 1.9259 0.52855 0.54251 1.1452 0.95844 1.8499 1.2478 0.70473 0.28934 1.4711 0.43401 2.2992 0.43401z" fill="#fff" stroke-width="2.7499" style="white-space:pre" aria-label="O"/></g></g></g></g></g></svg>
