<?xml version="1.0" encoding="UTF-8" standalone="no"?>
<!-- Created with Inkscape (http://www.inkscape.org/) -->

<svg
   width="189.98412mm"
   height="31.371075mm"
   viewBox="0 0 189.98411 31.371075"
   version="1.1"
   id="svg1"
   xml:space="preserve"
   xmlns:xlink="http://www.w3.org/1999/xlink"
   xmlns="http://www.w3.org/2000/svg"
   xmlns:svg="http://www.w3.org/2000/svg"><defs
     id="defs1"><linearGradient
       id="linearGradient27"><stop
         style="stop-color:#0a7956;stop-opacity:1;"
         offset="0"
         id="stop26" /><stop
         style="stop-color:#09523b;stop-opacity:0;"
         offset="1"
         id="stop27" /></linearGradient><linearGradient
       id="linearGradient19"><stop
         style="stop-color:#03734c;stop-opacity:1;"
         offset="0"
         id="stop18" /><stop
         style="stop-color:#0e7c5b;stop-opacity:1;"
         offset="0.6439169"
         id="stop19" /></linearGradient><rect
       x="1246.2758"
       y="3.1819806"
       width="150.61374"
       height="126.21856"
       id="rect29" /><linearGradient
       id="swatch32"><stop
         style="stop-color:#019846;stop-opacity:1;"
         offset="0"
         id="stop33" /></linearGradient><rect
       x="1644.0945"
       y="718.11023"
       width="188.97638"
       height="245.66928"
       id="rect63-8-0" /><rect
       x="1644.0945"
       y="718.11023"
       width="188.97638"
       height="245.66928"
       id="rect63-1-8-2" /><linearGradient
       xlink:href="#linearGradient27"
       id="linearGradient18"
       gradientUnits="userSpaceOnUse"
       x1="61.88818"
       y1="93.011024"
       x2="61.483772"
       y2="164.16629"
       gradientTransform="matrix(0.54678709,0,0,0.54678709,-2.7861096,-58.169682)" /><linearGradient
       xlink:href="#linearGradient19"
       id="linearGradient9"
       gradientUnits="userSpaceOnUse"
       gradientTransform="matrix(-0.56785283,0,0,0.54952474,60.843382,-37.52063)"
       x1="31.278156"
       y1="59.411167"
       x2="43.095589"
       y2="59.411167" /><linearGradient
       xlink:href="#linearGradient19"
       id="linearGradient22"
       gradientUnits="userSpaceOnUse"
       gradientTransform="matrix(0.56785283,0,0,0.54952474,-2.5530057,-37.520417)"
       x1="31.278156"
       y1="59.411167"
       x2="43.095589"
       y2="59.411167" /></defs><g
     id="layer1"
     transform="translate(-11.020039,-68.45391)"><g
       id="g15"
       transform="translate(-4.1889467,89.399222)"
       style="display:inline"><g
         id="layer1-8"
         style="display:inline;fill:#ffffff;fill-opacity:1"
         transform="translate(-2.9398148,-38.052429)"><g
           id="g21"
           transform="matrix(0.84471292,0,0,0.84471292,48.531728,-57.440907)"
           style="fill:#ffffff;fill-opacity:1"><path
             id="text28-2-4-5-4"
             style="font-style:normal;font-variant:normal;font-weight:bold;font-stretch:normal;font-size:80px;line-height:91.0488px;font-family:Montserrat;-inkscape-font-specification:'Montserrat Bold';text-align:start;letter-spacing:1px;writing-mode:lr-tb;direction:ltr;text-anchor:start;white-space:pre;shape-inside:url(#rect29);display:inline;fill:#ffffff;fill-opacity:1;stroke:#ffffff;stroke-width:0;stroke-dasharray:none;stroke-opacity:1"
             d="m 165.17518,98.811438 c -1.33806,-5.64e-4 -2.57834,0.238221 -3.72075,0.716032 -1.14243,0.47781 -2.13774,1.15034 -2.98663,2.01799 -0.84888,0.86767 -1.51053,1.88585 -1.98426,3.05479 -0.45741,1.16897 -0.68639,2.44472 -0.68701,3.82645 -6e-4,1.38173 0.22758,2.65709 0.68395,3.82644 0.47268,1.16935 1.1248,2.18843 1.9566,3.05677 0.84811,0.86837 1.84306,1.54171 2.9851,2.02048 1.15831,0.47878 2.4145,0.71843 3.76886,0.71902 1.33802,5.5e-4 2.57007,-0.23823 3.69618,-0.71604 1.14244,-0.47781 2.13001,-1.14173 2.96258,-1.99166 0.79301,-0.81057 1.42284,-1.75238 1.88851,-2.8259 l -3.82468,-1.17534 c -0.2414,0.52286 -0.55004,0.98846 -0.92609,1.39631 -0.48976,0.53123 -1.06112,0.93837 -1.71394,1.22153 -0.63649,0.28315 -1.33817,0.42438 -2.10508,0.42407 -0.76693,-3.4e-4 -1.47657,-0.14236 -2.12914,-0.42606 -0.65258,-0.2837 -1.22364,-0.69136 -1.71293,-1.22301 -0.47299,-0.53164 -0.84817,-1.16049 -1.12526,-1.8869 -0.26073,-0.74413 -0.39099,-1.55023 -0.3906,-2.41824 3.9e-4,-0.88571 0.13126,-1.69151 0.39266,-2.4177 0.27774,-0.72618 0.66159,-1.35517 1.15135,-1.8864 0.48975,-0.53123 1.0529,-0.93835 1.68941,-1.22152 0.65279,-0.28316 1.3627,-0.42438 2.12962,-0.42406 0.76694,3.2e-4 1.47656,0.14234 2.12915,0.42606 0.65257,0.28369 1.2154,0.69136 1.68834,1.22299 0.38582,0.41918 0.70082,0.89876 0.94456,1.43902 l 3.65005,-1.52938 v -5.2e-4 c -0.44612,-0.93311 -1.02274,-1.7613 -1.7298,-2.48524 -0.8318,-0.86836 -1.8185,-1.54219 -2.9605,-2.020977 -1.12571,-0.478767 -2.36591,-0.718437 -3.72025,-0.719008 z" /><path
             style="font-weight:600;font-size:73.2824px;line-height:43.7326px;font-family:Montserrat;-inkscape-font-specification:'Montserrat Semi-Bold';letter-spacing:-6.50864px;white-space:pre;display:inline;fill:#ffffff;fill-opacity:1;stroke-width:0.491212"
             d="M 94.393315,118.01318 V 98.963176 h 3.836456 v 19.037064 z"
             id="path40-1-5" /><path
             style="font-weight:bold;font-size:80px;line-height:91.0488px;font-family:Montserrat;-inkscape-font-specification:'Montserrat Bold';letter-spacing:1px;white-space:pre;fill:#ffffff;fill-opacity:1;stroke:#906540;stroke-width:0"
             d="m 180.02103,118.01318 v -15.45771 h -5.17655 v -3.592304 h 14.09686 v 3.592304 h -5.17655 v 15.45771 z"
             id="text30-6-0"
             aria-label="T" /><path
             style="font-weight:bold;font-size:80px;line-height:91.0488px;font-family:Montserrat;-inkscape-font-specification:'Montserrat Bold';letter-spacing:1px;white-space:pre;display:inline;fill:#ffffff;fill-opacity:1;stroke:#906540;stroke-width:0"
             d="M 102.33658,118.01318 V 98.963176 h 4.2267 l 7.16412,13.443854 h -3.7194 l 7.04338,-13.443854 h 4.20325 l 0.0481,19.050004 h -3.65379 l -0.0241,-12.70907 h 0.27894 l -5.62493,10.69521 h -0.96575 l -5.74518,-10.69521 h 0.42242 v 12.70907 z"
             id="text32-6-1-6"
             aria-label="M" /><path
             id="path57-4-1"
             style="font-weight:600;font-size:73.2824px;line-height:43.7326px;font-family:Montserrat;-inkscape-font-specification:'Montserrat Semi-Bold';letter-spacing:-7.955px;white-space:pre;display:inline;fill:#ffffff;fill-opacity:1;stroke-width:0.49712"
             d="m 144.75091,98.963166 -7.24573,19.049514 h 3.71045 l 1.56014,-4.39321 h 7.69025 l 1.56677,4.39374 h 3.7634 l -7.29258,-19.050045 z m 1.86158,3.850624 2.79595,7.84083 h -5.57967 z" /><g
             id="g3-2-3"
             transform="matrix(1,0,0,1.0105694,-216.17147,21.512713)"
             style="fill:#ffffff;fill-opacity:1"><path
               style="font-weight:bold;font-size:80px;line-height:91.0488px;font-family:Montserrat;-inkscape-font-specification:'Montserrat Bold';letter-spacing:1px;white-space:pre;fill:#ffffff;fill-opacity:1;stroke:#ffffff;stroke-width:0"
               d="m 354.42534,82.812939 c 0,1.934197 -0.51711,3.446491 -1.55135,4.536907 -1.03423,1.090415 -2.51082,1.635622 -4.42976,1.635622 h -7.42454 v -3.154415 h 6.199 c 1.24607,0 2.14324,-0.266105 2.69151,-0.79834 0.54827,-0.532234 0.82241,-1.278633 0.82241,-2.239245 0,-0.960613 -0.27414,-1.707011 -0.82241,-2.239247 -0.54827,-0.532234 -1.44544,-0.798282 -2.69151,-0.798291 l -6.199,-4.8e-5 V 76.64041 h 7.42454 c 1.91894,0 3.39553,0.545208 4.42976,1.635623 1.03424,1.090415 1.55135,2.602709 1.55135,4.536906 z"
               id="text27-3-3-8"
               aria-label="U" /><g
               id="g59-2-9"
               transform="matrix(1.0379562,0,0,1.0562146,21.452587,14.931934)"
               style="fill:#ffffff;fill-opacity:1"><path
                 style="font-weight:600;font-size:73.2824px;line-height:43.7326px;font-family:Montserrat;-inkscape-font-specification:'Montserrat Semi-Bold';letter-spacing:-7.955px;white-space:pre;display:inline;fill:#ffffff;fill-opacity:1;stroke-width:0.470345"
                 d="m 307.66102,58.424214 v 17.847449 h 3.52647 v -1.432208 -0.06936 -16.345871 z"
                 id="path41-21-3" /></g></g></g><g
           id="g20"
           transform="matrix(0.84471292,0,0,0.84471292,-28.023688,-37.628474)"
           style="fill:#ffffff;fill-opacity:1"><path
             style="font-weight:600;font-size:96px;line-height:109.259px;font-family:Montserrat;-inkscape-font-specification:'Montserrat Semi-Bold';letter-spacing:1px;white-space:pre;display:inline;opacity:1;fill:#ffffff;fill-opacity:1;stroke:#d6d9d9;stroke-width:0"
             d="m 165.68211,90.048166 -0.83305,-4.21847 8.47026,-10.436498 4.75401,4e-5 -7.35436,8.875128 -1.92613,2.164003 z m -2.79725,4.519742 v -19.17467 h 3.70431 v 19.17467 z m 10.72364,0 -6.46261,-8.738173 2.92845,-2.602278 8.24362,11.340451 z"
             id="text9"
             aria-label="K" /><path
             id="rect42-7-6"
             style="display:inline;fill:#ffffff;fill-opacity:1;stroke:#ffffff;stroke-width:2.01933;stroke-opacity:1"
             d="m 105.71637,87.77899 5.71382,5.756191 -0.57854,0.506819 -5.71382,-5.756192 z"
             transform="matrix(1,0,0,0.98472374,-0.86009517,1.1492164)" /><path
             id="text28-2-5-2"
             style="font-style:normal;font-variant:normal;font-weight:bold;font-stretch:normal;font-size:80px;line-height:91.0488px;font-family:Montserrat;-inkscape-font-specification:'Montserrat Bold';text-align:start;letter-spacing:1px;writing-mode:lr-tb;direction:ltr;text-anchor:start;white-space:pre;shape-inside:url(#rect29);display:inline;fill:#ffffff;fill-opacity:1;stroke:#ffffff;stroke-width:0;stroke-dasharray:none;stroke-opacity:1"
             d="m 151.66943,75.22894 c -1.34424,-5.68e-4 -2.59109,0.239471 -3.74042,0.719789 -1.14936,0.480317 -2.15157,1.15638 -3.00738,2.028587 -0.85579,0.872206 -1.52399,1.895742 -2.00394,3.070833 -0.46353,1.175101 -0.69798,2.457548 -0.70334,3.84653 -0.005,1.388983 0.2195,2.671043 0.67396,3.84653 0.47083,1.175493 1.12248,2.199912 1.95514,3.07283 0.84904,0.872926 1.84628,1.549796 2.99196,2.031082 1.162,0.481295 2.42318,0.722209 3.7838,0.722786 1.34421,5.69e-4 2.58278,-0.239468 3.71575,-0.719789 1.14935,-0.480316 2.14376,-1.147727 2.9831,-2.002132 0.79946,-0.81482 1.43545,-1.761573 1.90696,-2.840722 l -3.83831,-1.181512 c -0.24433,0.525602 -0.55598,0.993638 -0.93518,1.403638 -0.49385,0.534018 -1.06925,0.943294 -1.72606,1.227935 -0.64041,0.284649 -1.34582,0.426609 -2.11627,0.426283 -0.77047,-3.27e-4 -1.48291,-0.143083 -2.13752,-0.428279 -0.65462,-0.285197 -1.22693,-0.694999 -1.71666,-1.229435 -0.47335,-0.534423 -0.84808,-1.166581 -1.12396,-1.896808 -0.25939,-0.748023 -0.38748,-1.558343 -0.3841,-2.43091 0.003,-0.890373 0.13769,-1.700416 0.40279,-2.430411 0.28152,-0.729988 0.66931,-1.362293 1.16316,-1.896309 0.49384,-0.534015 1.06098,-0.943285 1.70142,-1.227934 0.6568,-0.284643 1.37047,-0.426609 2.14093,-0.426283 0.77049,3.25e-4 1.48291,0.143082 2.13754,0.428279 0.6546,0.285197 1.21863,0.695009 1.69193,1.229431 0.38614,0.421373 0.70098,0.903485 0.94398,1.44657 l 3.6722,-1.537417 v -5.01e-4 c -0.44497,-0.938023 -1.02142,-1.77056 -1.72927,-2.498297 -0.83265,-0.872918 -1.82162,-1.550296 -2.96723,-2.031582 -1.12927,-0.48128 -2.37439,-0.722209 -3.73498,-0.722784 z" /><path
             d="M 135.45962,94.567906 V 75.398107 l 3.86888,-0.0049 -0.008,19.174701 z"
             id="path38-1-8"
             style="font-weight:600;font-size:73.2824px;line-height:0;font-family:Montserrat;-inkscape-font-specification:'Montserrat Semi-Bold';letter-spacing:-4.57px;white-space:pre;display:inline;fill:#ffffff;fill-opacity:1;stroke-width:0.493233" /><path
             style="font-weight:bold;font-size:80px;line-height:91.0488px;font-family:Montserrat;-inkscape-font-specification:'Montserrat Bold';letter-spacing:1px;white-space:pre;stroke:#ffffff;stroke-width:0"
             d="m 1318.8594,85.706135 q 0,10.78125 -6.5625,16.523435 -6.5625,5.74219 -19.336,5.74219 -12.7734,0 -19.3359,-5.74219 -6.5234,-5.742185 -6.5234,-16.484373 V 48.59676 h 15.0781 v 36.289062 q 0,6.054688 2.5391,9.023438 2.539,2.96875 8.2421,2.96875 5.625,0 8.2032,-2.851563 2.6172,-2.851562 2.6172,-9.140625 V 48.59676 h 15.0781 z"
             id="text27-5-0"
             transform="matrix(0.31951332,0,0,0.3229425,-289.05796,59.699239)"
             aria-label="U" /><g
             id="g1"
             transform="matrix(1,0,0,0.98472374,0,1.149217)"
             style="fill:#ffffff;fill-opacity:1"><path
               d="m 103.42673,94.867918 c -1.46231,0 -2.81892,-0.244131 -4.06981,-0.732393 -1.23328,-0.488264 -2.30799,-1.175447 -3.22414,-2.06155 -0.89853,-0.886106 -1.60326,-1.925923 -2.11419,-3.119452 -0.49331,-1.193529 -0.73997,-2.495561 -0.73997,-3.906096 0,-1.410535 0.24666,-2.712567 0.73997,-3.906097 0.51093,-1.193529 1.22446,-2.233345 2.14061,-3.11945 0.91615,-0.886105 1.99087,-1.573289 3.22414,-2.061549 1.23328,-0.488264 2.57227,-0.732394 4.01696,-0.732394 1.46232,0 2.80131,0.24413 4.01696,0.732394 1.23328,0.48826 2.29919,1.175444 3.19772,2.061549 0.91615,0.886105 1.62968,1.925921 2.14061,3.11945 0.51093,1.175447 0.7664,2.477479 0.7664,3.906097 0,1.410535 -0.25547,2.721608 -0.7664,3.933221 -0.51093,1.19353 -1.22446,2.233348 -2.14061,3.119452 -0.89853,0.868022 -1.96444,1.546161 -3.19772,2.034425 -1.21565,0.488262 -2.54583,0.732393 -3.99053,0.732393 z m -0.0264,-3.743342 c 0.82806,0 1.58565,-0.14467 2.27276,-0.434011 0.70473,-0.289339 1.32136,-0.705266 1.84991,-1.24778 0.52855,-0.542513 0.93377,-1.184488 1.21566,-1.925922 0.29951,-0.741435 0.44927,-1.564246 0.44927,-2.468436 0,-0.904188 -0.14976,-1.727001 -0.44927,-2.468434 -0.28189,-0.741436 -0.68711,-1.38341 -1.21566,-1.925922 -0.51093,-0.542513 -1.11875,-0.958441 -1.82348,-1.247782 -0.70473,-0.28934 -1.47113,-0.43401 -2.29919,-0.43401 -0.82805,0 -1.59445,0.14467 -2.29918,0.43401 -0.68711,0.289341 -1.29494,0.705269 -1.82349,1.247782 -0.52855,0.542512 -0.94257,1.184486 -1.24208,1.925922 -0.28189,0.741433 -0.42284,1.564246 -0.42284,2.468434 0,0.886107 0.14095,1.708917 0.42284,2.468436 0.29951,0.741434 0.70473,1.383409 1.21566,1.925922 0.52855,0.542514 1.14518,0.958441 1.84991,1.24778 0.70473,0.289341 1.47113,0.434011 2.29918,0.434011 z"
               id="text64-1-6-0"
               style="font-weight:bold;font-size:80px;line-height:116.224px;font-family:Montserrat;-inkscape-font-specification:'Montserrat Bold';letter-spacing:1px;white-space:pre;fill:#ffffff;fill-opacity:1;stroke-width:2.74993"
               aria-label="O" /></g></g></g></g><g
       id="path16-4"
       style="opacity:1"
       transform="translate(-4.1889468,89.399222)"><path
         style="baseline-shift:baseline;display:inline;overflow:visible;vector-effect:none;fill:url(#linearGradient18);enable-background:accumulate;stop-color:#000000;stop-opacity:1"
         d="m 31.794405,-20.931677 -2.650223,13.5682714 6.952305,0.051146 -10.882561,17.7235716 3.244289,-13.8464531 -6.640412,0.1118672 z"
         id="path6" /><path
         style="baseline-shift:baseline;display:inline;overflow:visible;vector-effect:none;fill:#03c678;enable-background:accumulate;stop-color:#000000;stop-opacity:1"
         d="m 31.771484,-20.945312 -0.0039,0.0078 -9.998047,17.6425781 6.654297,-0.1132812 -3.236328,13.8125001 0.04883,0.02148 0.0039,-0.0078 10.904297,-17.7578127 -6.966797,-0.050781 2.640625,-13.5273443 0.002,-0.0078 z m -0.03711,0.173828 -2.623047,13.4355465 6.935547,0.050781 -10.767578,17.5390625 3.21289,-13.7167969 -6.626953,0.1113281 z"
         id="path7" /></g><g
       id="text82-1"
       style="opacity:1"
       transform="translate(-4.1889468,89.399222)"><path
         style="font-size:55.4948px;line-height:786.538px;font-family:'MS Gothic';-inkscape-font-specification:'MS Gothic';letter-spacing:0.289035px;baseline-shift:baseline;display:inline;overflow:visible;vector-effect:none;fill:url(#linearGradient22);enable-background:accumulate;stop-color:#000000;stop-opacity:1"
         d="m 19.767314,8.9754172 c -1.155053,0 -2.59527,-0.7020035 -2.617899,-2.5185997 L 17.036731,-2.588654 c -0.0076,-0.6098371 -0.317997,-1.4135917 -1.814013,-1.377243 l 1.33e-4,-1.8216572 c 1.438584,-0.018181 1.81388,-0.8584175 1.81388,-1.3774256 v -8.4662012 c 0,-1.982735 1.093489,-3.088898 2.730583,-3.088898 h 2.137144 v 1.237529 h -1.054545 c -0.826255,0 -1.439364,0.644733 -1.439364,1.508056 v 8.0085712 c 0,1.5254414 -0.774791,2.6664898 -2.094705,3.0889233 1.262483,0.6247742 2.094705,1.5636722 2.094705,3.0891152 v 8.0085718 c 0,0.8355727 0.716963,1.3732229 1.439364,1.3732229 h 1.039312 l 0.01523,1.3815068 z"
         id="path2" /><path
         style="font-size:55.4948px;line-height:786.538px;font-family:'MS Gothic';-inkscape-font-specification:'MS Gothic';letter-spacing:0.289035px;baseline-shift:baseline;display:inline;overflow:visible;vector-effect:none;fill:#129e74;enable-background:accumulate;stop-color:#000000;stop-opacity:1"
         d="m 19.767578,-18.734375 c -0.821723,0 -1.509386,0.279143 -1.990234,0.806641 -0.480849,0.527497 -0.753907,1.302915 -0.753907,2.296875 v 8.4667965 c 0,0.2561056 -0.09255,0.5909797 -0.363281,0.8652344 -0.270732,0.2742547 -0.720937,0.4889908 -1.4375,0.4980469 h -0.01367 v 1.8496093 h 0.01367 c 0.745462,-0.018112 1.192795,0.1721367 1.455078,0.4414063 0.262284,0.2692695 0.341932,0.6192709 0.345703,0.921875 l 0.111329,9.0449218 c 0.01136,0.9120008 0.380337,1.5461976 0.890625,1.9511719 0.510287,0.4049743 1.161804,0.5820313 1.742187,0.5820313 h 2.150391 l -0.01563,-1.4101563 h -1.052735 c -0.715405,0 -1.425781,-0.5318677 -1.425781,-1.359375 v -8.0078125 c 0,-1.5228995 -0.831251,-2.4636231 -2.085937,-3.0898437 1.311429,-0.4300605 2.085937,-1.5684932 2.085937,-3.0898438 v -8.0078121 c 0,-0.856648 0.606861,-1.494141 1.425781,-1.494141 h 1.06836 v -1.265625 z m 0,0.0293 h 2.123047 v 1.208984 h -1.041016 c -0.833589,0 -1.453125,0.651486 -1.453125,1.521485 v 8.0078121 c 0,1.5206672 -0.769565,2.6554969 -2.083984,3.0761719 l -0.0332,0.011719 0.03125,0.013672 c 1.259658,0.6233761 2.085937,1.5578102 2.085937,3.078125 v 8.0078125 c 0,0.8436382 0.723729,1.3867188 1.453125,1.3867188 H 21.875 l 0.01563,1.3535156 h -2.123047 c -0.57467,0 -1.220367,-0.1740422 -1.724609,-0.5742187 -0.504247,-0.40018 -0.867643,-1.0250955 -0.878912,-1.929691 l -0.113281,-9.0449218 c -0.0038,-0.307233 -0.0847,-0.6654264 -0.353515,-0.9414063 -0.266341,-0.2734355 -0.72267,-0.461489 -1.460938,-0.4472656 v -1.8007812 c 0.710561,-0.012799 1.169343,-0.2243711 1.443359,-0.5019532 0.276563,-0.2801608 0.371094,-0.6218631 0.371094,-0.8847656 v -8.4667965 c 0,-0.988776 0.272878,-1.75803 0.748047,-2.279297 0.475169,-0.521268 1.153379,-0.794922 1.96875,-0.794922 z"
         id="path3" /></g><g
       id="text82-1-1"
       style="opacity:1"
       transform="translate(-4.1889468,89.399222)"><path
         style="font-size:55.4948px;line-height:786.538px;font-family:'MS Gothic';-inkscape-font-specification:'MS Gothic';letter-spacing:0.289035px;baseline-shift:baseline;display:inline;overflow:visible;vector-effect:none;fill:url(#linearGradient9);enable-background:accumulate;stop-color:#000000;stop-opacity:1"
         d="m 38.523057,8.975204 c 1.155052,0 2.595269,-0.7019981 2.617899,-2.5185943 l 0.112684,-9.045477 c 0.0076,-0.6098316 0.317996,-1.41359 1.814012,-1.3772413 l -1.32e-4,-1.8216572 c -1.438585,-0.018181 -1.81388,-0.8584175 -1.81388,-1.3774256 v -8.4662016 c 0,-1.982735 -1.09349,-3.088897 -2.730583,-3.088897 h -2.137144 v 1.237529 h 1.054545 c 0.826255,0 1.439364,0.644732 1.439364,1.508056 v 8.0085706 c 0,1.5254413 0.774791,2.6664898 2.094705,3.0889233 -1.262483,0.6247742 -2.094705,1.563676 -2.094705,3.089119 v 8.0085663 c 0,0.8355727 -0.716963,1.373223 -1.439364,1.373223 h -1.039312 l -0.01523,1.3815068 z"
         id="path4" /><path
         style="font-size:55.4948px;line-height:786.538px;font-family:'MS Gothic';-inkscape-font-specification:'MS Gothic';letter-spacing:0.289035px;baseline-shift:baseline;display:inline;overflow:visible;vector-effect:none;fill:#13a579;enable-background:accumulate;stop-color:#000000;stop-opacity:1"
         d="m 36.371094,-18.734375 v 1.265625 h 1.070312 c 0.818921,0 1.423828,0.637492 1.423828,1.494141 v 8.0078121 c 0,1.5207234 0.775496,2.6593727 2.085938,3.0898438 -1.253203,0.6262259 -2.085938,1.5660638 -2.085938,3.0878906 v 8.0097656 c 0,0.8275073 -0.708423,1.359375 -1.423828,1.359375 h -1.054687 l -0.01563,1.4101563 h 2.152343 c 0.580383,0 1.231901,-0.1770583 1.742188,-0.5820313 0.510287,-0.4049729 0.877311,-1.0391711 0.888672,-1.9511719 l 0.113281,-9.0449218 c 0.0038,-0.3026014 0.08342,-0.6526052 0.345703,-0.921875 0.262283,-0.2692699 0.707664,-0.4595188 1.453125,-0.4414063 h 0.01563 v -1.8496093 l -0.01367,-0.00195 c -0.716563,-0.00906 -1.166768,-0.221839 -1.4375,-0.4960937 -0.270731,-0.2742547 -0.363281,-0.611082 -0.363281,-0.8671875 v -8.4648436 c 0,-0.99396 -0.27501,-1.771331 -0.755859,-2.298828 -0.480849,-0.527498 -1.166559,-0.804688 -1.988282,-0.804688 z m 0.0293,0.02734 h 2.123046 c 0.815371,0 1.493581,0.275608 1.96875,0.796875 0.47517,0.521267 0.748047,1.290521 0.748047,2.279297 v 8.4648434 c 0,0.2629025 0.09453,0.6065579 0.371094,0.8867187 0.274013,0.277579 0.730859,0.4891499 1.441406,0.5019532 v 1.8007812 c -0.736678,-0.013708 -1.194919,0.1741606 -1.460937,0.4472656 -0.268819,0.2759801 -0.347734,0.6322229 -0.351563,0.9394531 l -0.113281,9.046875 c -0.01127,0.9045955 -0.374664,1.5295124 -0.878906,1.9296876 -0.504242,0.4001751 -1.14994,0.5742187 -1.72461,0.5742187 h -2.123046 l 0.01563,-1.3535156 h 1.02539 c 0.729397,0 1.453125,-0.5430806 1.453125,-1.3867188 v -8.0097656 c 0,-1.5203149 0.82628,-2.4527958 2.085938,-3.0761719 l 0.03125,-0.015625 -0.0332,-0.00977 C 39.664096,-5.3113 38.894531,-6.4461298 38.894531,-7.9667969 v -8.0078121 c 0,-0.87 -0.619535,-1.521485 -1.453125,-1.521485 h -1.041015 z"
         id="path5" /></g></g></svg>
